<svg width="74" height="74" viewBox="0 0 74 74" fill="none" xmlns="http://www.w3.org/2000/svg">
<mask id="path-1-inside-1_1_11" fill="white">
<path fill-rule="evenodd" clip-rule="evenodd" d="M36.5385 73.0769C56.7181 73.0769 73.0769 56.7181 73.0769 36.5385C73.0769 16.3588 56.7181 0 36.5385 0C16.3588 0 0 16.3588 0 36.5385C0 56.7181 16.3588 73.0769 36.5385 73.0769ZM63.4284 32.7469C60.0213 36.731 55.2223 39.2121 49.9054 39.2121C39.5695 39.2121 31.1906 29.8357 31.1906 18.2693C31.1906 15.3594 31.7209 12.5881 32.6794 10.0698C19.7276 12.0369 9.80273 23.22 9.80273 36.7211C9.80273 40.6603 10.6476 44.4022 12.1661 47.7754C13.7065 46.3424 15.8713 45.4506 18.269 45.4506C22.9447 45.4506 26.7352 48.8421 26.7352 53.0257C26.7352 55.8349 25.0261 58.287 22.4875 59.5949C26.6268 62.1833 31.5192 63.6794 36.761 63.6794C51.6496 63.6794 63.7192 51.6097 63.7192 36.7211C63.7192 35.3709 63.62 34.0438 63.4284 32.7469Z"/>
</mask>
<path fill-rule="evenodd" clip-rule="evenodd" d="M36.5385 73.0769C56.7181 73.0769 73.0769 56.7181 73.0769 36.5385C73.0769 16.3588 56.7181 0 36.5385 0C16.3588 0 0 16.3588 0 36.5385C0 56.7181 16.3588 73.0769 36.5385 73.0769ZM63.4284 32.7469C60.0213 36.731 55.2223 39.2121 49.9054 39.2121C39.5695 39.2121 31.1906 29.8357 31.1906 18.2693C31.1906 15.3594 31.7209 12.5881 32.6794 10.0698C19.7276 12.0369 9.80273 23.22 9.80273 36.7211C9.80273 40.6603 10.6476 44.4022 12.1661 47.7754C13.7065 46.3424 15.8713 45.4506 18.269 45.4506C22.9447 45.4506 26.7352 48.8421 26.7352 53.0257C26.7352 55.8349 25.0261 58.287 22.4875 59.5949C26.6268 62.1833 31.5192 63.6794 36.761 63.6794C51.6496 63.6794 63.7192 51.6097 63.7192 36.7211C63.7192 35.3709 63.62 34.0438 63.4284 32.7469Z" fill="white"/>
<path d="M63.4284 32.7469L66.0732 32.3561L65.2145 26.5445L61.3965 31.0093L63.4284 32.7469ZM32.6794 10.0698L35.178 11.0208L36.8078 6.73859L32.2779 7.42659L32.6794 10.0698ZM12.1661 47.7754L9.72819 48.8729L11.2582 52.2717L13.9872 49.7329L12.1661 47.7754ZM22.4875 59.5949L21.263 57.2182L17.0858 59.3703L21.07 61.8617L22.4875 59.5949ZM70.4034 36.5385C70.4034 55.2415 55.2415 70.4034 36.5385 70.4034V75.7505C58.1947 75.7505 75.7505 58.1947 75.7505 36.5385H70.4034ZM36.5385 2.67355C55.2415 2.67355 70.4034 17.8354 70.4034 36.5385H75.7505C75.7505 14.8823 58.1947 -2.67355 36.5385 -2.67355V2.67355ZM2.67355 36.5385C2.67355 17.8354 17.8354 2.67355 36.5385 2.67355V-2.67355C14.8823 -2.67355 -2.67355 14.8823 -2.67355 36.5385H2.67355ZM36.5385 70.4034C17.8354 70.4034 2.67355 55.2415 2.67355 36.5385H-2.67355C-2.67355 58.1947 14.8823 75.7505 36.5385 75.7505V70.4034ZM49.9054 41.8857C56.0903 41.8857 61.6043 38.9935 65.4603 34.4845L61.3965 31.0093C58.4384 34.4684 54.3543 36.5386 49.9054 36.5386V41.8857ZM28.517 18.2693C28.517 31.0216 37.8181 41.8857 49.9054 41.8857V36.5386C41.3209 36.5386 33.8641 28.6499 33.8641 18.2693H28.517ZM30.1807 9.11884C29.1069 11.9402 28.517 15.0338 28.517 18.2693H33.8641C33.8641 15.685 34.335 13.2359 35.178 11.0208L30.1807 9.11884ZM12.4763 36.7211C12.4763 24.5614 21.4158 14.4847 33.0808 12.7131L32.2779 7.42659C18.0393 9.58915 7.12919 21.8786 7.12919 36.7211H12.4763ZM14.604 46.678C13.2378 43.643 12.4763 40.2746 12.4763 36.7211H7.12919C7.12919 41.0461 8.05746 45.1614 9.72819 48.8729L14.604 46.678ZM18.269 42.7771C15.2096 42.7771 12.3903 43.9153 10.345 45.818L13.9872 49.7329C15.0227 48.7695 16.5331 48.1242 18.269 48.1242V42.7771ZM29.4087 53.0257C29.4087 47.0937 24.1339 42.7771 18.269 42.7771V48.1242C21.7556 48.1242 24.0616 50.5905 24.0616 53.0257H29.4087ZM23.7119 61.9715C27.0027 60.2761 29.4087 56.982 29.4087 53.0257H24.0616C24.0616 54.6878 23.0495 56.2978 21.263 57.2182L23.7119 61.9715ZM36.761 61.0058C32.0349 61.0058 27.6317 59.6584 23.905 57.328L21.07 61.8617C25.6219 64.7081 31.0034 66.3529 36.761 66.3529V61.0058ZM61.0457 36.7211C61.0457 50.1332 50.1731 61.0058 36.761 61.0058V66.3529C53.1262 66.3529 66.3928 53.0863 66.3928 36.7211H61.0457ZM60.7835 33.1376C60.9561 34.3056 61.0457 35.5021 61.0457 36.7211H66.3928C66.3928 35.2397 66.2839 33.782 66.0732 32.3561L60.7835 33.1376Z" fill="white" mask="url(#path-1-inside-1_1_11)"/>
</svg>
